<svg width="640" height="140" viewBox="0 0 640 140" fill="none" xmlns="http://www.w3.org/2000/svg" role="img" aria-labelledby="title desc">
  <title id="title">Loglime logo</title>
  <desc id="desc">Dependency-free Loglime wordmark in Quicksand Bold converted to vector paths, with transparent background.</desc>
  <path d="M461 117Q487 117 504.5 100.5Q522 84 522 58Q522 33 504.5 16.5Q487 0 461 0H136Q110 0 92.5 17.5Q75 35 75 61V639Q75 665 93.0 682.5Q111 700 139 700Q163 700 181.5 682.5Q200 665 200 639V100L178 117Z" transform="translate(130.360,97.345) scale(0.101277, -0.101277)" fill="#FF5A5F"/>
  <path d="M584 267Q584 185 547.5 122.5Q511 60 449.5 25.0Q388 -10 312 -10Q236 -10 174.5 25.0Q113 60 76.5 122.5Q40 185 40 267Q40 349 76.5 411.5Q113 474 174.5 509.5Q236 545 312 545Q388 545 449.5 509.5Q511 474 547.5 411.5Q584 349 584 267ZM464 267Q464 318 443.5 355.5Q423 393 388.5 414.0Q354 435 312 435Q270 435 235.5 414.0Q201 393 180.5 355.5Q160 318 160 267Q160 217 180.5 179.5Q201 142 235.5 121.0Q270 100 312 100Q354 100 388.5 121.0Q423 142 443.5 179.5Q464 217 464 267Z" transform="translate(185.049,97.345) scale(0.101277, -0.101277)" fill="#FF5A5F"/>
  <path d="M287 545Q329 545 364.0 532.0Q399 519 424.5 499.0Q450 479 464.5 458.5Q479 438 479 424L453 411V484Q453 510 470.0 527.5Q487 545 513 545Q539 545 556.0 528.0Q573 511 573 484V39Q573 -48 535.5 -100.5Q498 -153 437.0 -176.5Q376 -200 306 -200Q286 -200 254.0 -195.0Q222 -190 193.0 -183.0Q164 -176 149 -170Q119 -157 107.5 -137.5Q96 -118 103 -96Q112 -67 132.0 -56.5Q152 -46 174 -54Q184 -57 207.0 -66.0Q230 -75 257.5 -82.5Q285 -90 306 -90Q381 -90 417.0 -60.0Q453 -30 453 23V110L465 101Q465 88 451.5 69.5Q438 51 414.5 33.0Q391 15 359.0 2.5Q327 -10 291 -10Q220 -10 163.0 25.5Q106 61 73.0 123.5Q40 186 40 267Q40 349 73.0 411.5Q106 474 162.0 509.5Q218 545 287 545ZM306 435Q261 435 227.0 413.0Q193 391 174.0 353.0Q155 315 155 267Q155 220 174.0 182.0Q193 144 227.0 122.0Q261 100 306 100Q352 100 386.0 122.0Q420 144 439.0 182.0Q458 220 458 267Q458 315 439.0 353.0Q420 391 386.0 413.0Q352 435 306 435Z" transform="translate(246.017,97.345) scale(0.101277, -0.101277)" fill="#FF5A5F"/>
  <path d="M195 61Q195 35 177.5 17.5Q160 0 134 0Q109 0 92.0 17.5Q75 35 75 61V679Q75 705 92.5 722.5Q110 740 136 740Q162 740 178.5 722.5Q195 705 195 679Z" transform="translate(308.404,97.345) scale(0.101277, -0.101277)" fill="#FF5A5F"/>
  <path d="M178 61Q178 35 161.0 17.5Q144 0 118 0Q92 0 75.0 17.5Q58 35 58 61V474Q58 500 75.0 517.5Q92 535 118 535Q144 535 161.0 517.5Q178 500 178 474ZM117 600Q83 600 69.0 611.0Q55 622 55 650V669Q55 698 70.5 708.5Q86 719 118 719Q153 719 167.0 708.0Q181 697 181 669V650Q181 621 166.0 610.5Q151 600 117 600Z" transform="translate(333.520,97.345) scale(0.101277, -0.101277)" fill="#FF5A5F"/>
  <path d="M346 545Q426 545 464.0 506.5Q502 468 514 407L497 416L505 432Q517 455 542.0 481.5Q567 508 602.5 526.5Q638 545 682 545Q754 545 791.5 514.0Q829 483 843.0 431.5Q857 380 857 317V61Q857 35 840.0 17.5Q823 0 797 0Q771 0 754.0 17.5Q737 35 737 61V317Q737 350 729.0 376.5Q721 403 700.0 419.0Q679 435 640 435Q602 435 575.0 419.0Q548 403 534.5 376.5Q521 350 521 317V61Q521 35 504.0 17.5Q487 0 461 0Q435 0 418.0 17.5Q401 35 401 61V317Q401 350 393.0 376.5Q385 403 364.0 419.0Q343 435 304 435Q266 435 239.0 419.0Q212 403 198.5 376.5Q185 350 185 317V61Q185 35 168.0 17.5Q151 0 125 0Q99 0 82.0 17.5Q65 35 65 61V474Q65 500 82.0 517.5Q99 535 125 535Q151 535 168.0 517.5Q185 500 185 474V431L170 434Q179 451 195.0 470.5Q211 490 234.0 507.0Q257 524 285.0 534.5Q313 545 346 545Z" transform="translate(355.194,97.345) scale(0.101277, -0.101277)" fill="#FF5A5F"/>
  <path d="M317 -10Q232 -10 169.5 25.5Q107 61 73.5 122.0Q40 183 40 260Q40 350 76.5 413.5Q113 477 172.0 511.0Q231 545 297 545Q348 545 393.5 524.0Q439 503 474.0 466.5Q509 430 529.5 382.0Q550 334 550 280Q549 256 531.0 241.0Q513 226 489 226H107L77 326H444L422 306V333Q420 362 401.5 385.0Q383 408 355.5 421.5Q328 435 297 435Q267 435 241.0 427.0Q215 419 196.0 400.0Q177 381 166.0 349.0Q155 317 155 268Q155 214 177.5 176.5Q200 139 235.5 119.5Q271 100 311 100Q348 100 370.0 106.0Q392 112 405.5 120.5Q419 129 430 135Q448 144 464 144Q486 144 500.5 129.0Q515 114 515 94Q515 67 487 45Q461 23 414.0 6.5Q367 -10 317 -10Z" transform="translate(446.343,97.345) scale(0.101277, -0.101277)" fill="#FF5A5F"/>
</svg>
